<mxfile host="app.diagrams.net" agent="Mozilla/5.0 (Windows NT 10.0; Win64; x64) AppleWebKit/537.36 (KHTML, like Gecko) Chrome/127.0.0.0 Safari/537.36" version="24.7.6" pages="2">
  <diagram name="ER-Diagram" id="b520641d-4fe3-3701-9064-5fc419738815">
    <mxGraphModel dx="1434" dy="788" grid="1" gridSize="10" guides="1" tooltips="1" connect="1" arrows="1" fold="1" page="1" pageScale="1" pageWidth="1100" pageHeight="850" background="none" math="0" shadow="0">
      <root>
        <mxCell id="0" />
        <mxCell id="1" parent="0" />
        <mxCell id="3WPT-06_elZsAD1dhqRA-13" value="" style="edgeStyle=entityRelationEdgeStyle;fontSize=12;html=1;endArrow=ERzeroToMany;startArrow=ERmandOne;rounded=1;entryX=0;entryY=0.5;entryDx=0;entryDy=0;exitX=1;exitY=0.5;exitDx=0;exitDy=0;strokeColor=#5b7fd2;" parent="1" source="qSnJtfrlG7sbHVNIXM9t-2" target="qSnJtfrlG7sbHVNIXM9t-27" edge="1">
          <mxGeometry width="100" height="100" relative="1" as="geometry">
            <mxPoint x="425" y="-100" as="sourcePoint" />
            <mxPoint x="675" y="-185" as="targetPoint" />
          </mxGeometry>
        </mxCell>
        <mxCell id="3WPT-06_elZsAD1dhqRA-14" value="" style="edgeStyle=entityRelationEdgeStyle;fontSize=12;html=1;endArrow=ERzeroToMany;startArrow=ERmandOne;rounded=1;entryX=0;entryY=0.5;entryDx=0;entryDy=0;exitX=1;exitY=0.5;exitDx=0;exitDy=0;strokeColor=#5b7fd2;align=center;verticalAlign=middle;fontFamily=Helvetica;fontColor=default;labelBackgroundColor=default;" parent="1" source="qSnJtfrlG7sbHVNIXM9t-2" target="qSnJtfrlG7sbHVNIXM9t-46" edge="1">
          <mxGeometry width="100" height="100" relative="1" as="geometry">
            <mxPoint x="425" y="-100" as="sourcePoint" />
            <mxPoint x="645" y="-192" as="targetPoint" />
          </mxGeometry>
        </mxCell>
        <mxCell id="qSnJtfrlG7sbHVNIXM9t-1" value="Customer" style="shape=table;startSize=30;container=1;collapsible=1;childLayout=tableLayout;fixedRows=1;rowLines=0;fontStyle=1;align=center;resizeLast=1;html=1;rounded=1;shadow=0;comic=0;fillStyle=solid;strokeColor=#6c8ebf;strokeWidth=1;verticalAlign=middle;swimlaneFillColor=#ffffff;fontFamily=Calibri;fontSize=12;fontColor=#ffffff;labelBackgroundColor=none;fillColor=#70a8db;gradientColor=none;" parent="1" vertex="1">
          <mxGeometry x="285" y="245" width="180" height="180" as="geometry" />
        </mxCell>
        <mxCell id="qSnJtfrlG7sbHVNIXM9t-2" value="" style="shape=tableRow;horizontal=0;startSize=0;swimlaneHead=0;swimlaneBody=0;fillColor=none;collapsible=0;dropTarget=0;points=[[0,0.5],[1,0.5]];portConstraint=eastwest;top=0;left=0;right=0;bottom=1;rounded=1;align=left;verticalAlign=top;spacingLeft=4;spacingRight=4;fontFamily=Calibri;fontSize=12;fontColor=default;fontStyle=0;labelBackgroundColor=none;gradientColor=none;shadow=0;comic=0;fillStyle=solid;strokeColor=#6c8ebf;strokeWidth=1;swimlaneFillColor=#ffffff;" parent="qSnJtfrlG7sbHVNIXM9t-1" vertex="1">
          <mxGeometry y="30" width="180" height="30" as="geometry" />
        </mxCell>
        <mxCell id="qSnJtfrlG7sbHVNIXM9t-3" value="PK" style="shape=partialRectangle;connectable=0;fillColor=none;top=0;left=0;bottom=0;right=0;fontStyle=1;overflow=hidden;whiteSpace=wrap;html=1;rounded=1;align=left;verticalAlign=top;spacingLeft=4;spacingRight=4;fontFamily=Calibri;fontSize=12;fontColor=default;labelBackgroundColor=none;gradientColor=none;shadow=0;comic=0;fillStyle=solid;strokeColor=#6c8ebf;strokeWidth=1;swimlaneFillColor=#ffffff;" parent="qSnJtfrlG7sbHVNIXM9t-2" vertex="1">
          <mxGeometry width="30" height="30" as="geometry">
            <mxRectangle width="30" height="30" as="alternateBounds" />
          </mxGeometry>
        </mxCell>
        <mxCell id="qSnJtfrlG7sbHVNIXM9t-4" value="Customer_ID (INT64)" style="shape=partialRectangle;connectable=0;fillColor=none;top=0;left=0;bottom=0;right=0;align=left;spacingLeft=4;fontStyle=0;overflow=hidden;whiteSpace=wrap;html=1;rounded=1;verticalAlign=top;spacingRight=4;fontFamily=Calibri;fontSize=12;fontColor=default;labelBackgroundColor=none;gradientColor=none;shadow=0;comic=0;fillStyle=solid;strokeColor=#6c8ebf;strokeWidth=1;swimlaneFillColor=#ffffff;" parent="qSnJtfrlG7sbHVNIXM9t-2" vertex="1">
          <mxGeometry x="30" width="150" height="30" as="geometry">
            <mxRectangle width="150" height="30" as="alternateBounds" />
          </mxGeometry>
        </mxCell>
        <mxCell id="qSnJtfrlG7sbHVNIXM9t-5" value="" style="shape=tableRow;horizontal=0;startSize=0;swimlaneHead=0;swimlaneBody=0;fillColor=none;collapsible=0;dropTarget=0;points=[[0,0.5],[1,0.5]];portConstraint=eastwest;top=0;left=0;right=0;bottom=0;rounded=1;align=left;verticalAlign=top;spacingLeft=4;spacingRight=4;fontFamily=Calibri;fontSize=12;fontColor=default;fontStyle=0;labelBackgroundColor=none;gradientColor=none;shadow=0;comic=0;fillStyle=solid;strokeColor=#6c8ebf;strokeWidth=1;swimlaneFillColor=#ffffff;" parent="qSnJtfrlG7sbHVNIXM9t-1" vertex="1">
          <mxGeometry y="60" width="180" height="30" as="geometry" />
        </mxCell>
        <mxCell id="qSnJtfrlG7sbHVNIXM9t-6" value="" style="shape=partialRectangle;connectable=0;fillColor=none;top=0;left=0;bottom=0;right=0;editable=1;overflow=hidden;whiteSpace=wrap;html=1;rounded=1;align=left;verticalAlign=top;spacingLeft=4;spacingRight=4;fontFamily=Calibri;fontSize=12;fontColor=default;fontStyle=1;labelBackgroundColor=none;gradientColor=none;shadow=0;comic=0;fillStyle=solid;strokeColor=#6c8ebf;strokeWidth=1;swimlaneFillColor=#ffffff;" parent="qSnJtfrlG7sbHVNIXM9t-5" vertex="1">
          <mxGeometry width="30" height="30" as="geometry">
            <mxRectangle width="30" height="30" as="alternateBounds" />
          </mxGeometry>
        </mxCell>
        <mxCell id="qSnJtfrlG7sbHVNIXM9t-7" value="First (String)" style="shape=partialRectangle;connectable=0;fillColor=none;top=0;left=0;bottom=0;right=0;align=left;spacingLeft=4;overflow=hidden;whiteSpace=wrap;html=1;rounded=1;verticalAlign=top;spacingRight=4;fontFamily=Calibri;fontSize=12;fontColor=default;fontStyle=0;labelBackgroundColor=none;gradientColor=none;shadow=0;comic=0;fillStyle=solid;strokeColor=#6c8ebf;strokeWidth=1;swimlaneFillColor=#ffffff;" parent="qSnJtfrlG7sbHVNIXM9t-5" vertex="1">
          <mxGeometry x="30" width="150" height="30" as="geometry">
            <mxRectangle width="150" height="30" as="alternateBounds" />
          </mxGeometry>
        </mxCell>
        <mxCell id="qSnJtfrlG7sbHVNIXM9t-8" value="" style="shape=tableRow;horizontal=0;startSize=0;swimlaneHead=0;swimlaneBody=0;fillColor=none;collapsible=0;dropTarget=0;points=[[0,0.5],[1,0.5]];portConstraint=eastwest;top=0;left=0;right=0;bottom=0;rounded=1;align=left;verticalAlign=top;spacingLeft=4;spacingRight=4;fontFamily=Calibri;fontSize=12;fontColor=default;fontStyle=0;labelBackgroundColor=none;gradientColor=none;shadow=0;comic=0;fillStyle=solid;strokeColor=#6c8ebf;strokeWidth=1;swimlaneFillColor=#ffffff;" parent="qSnJtfrlG7sbHVNIXM9t-1" vertex="1">
          <mxGeometry y="90" width="180" height="30" as="geometry" />
        </mxCell>
        <mxCell id="qSnJtfrlG7sbHVNIXM9t-9" value="" style="shape=partialRectangle;connectable=0;fillColor=none;top=0;left=0;bottom=0;right=0;editable=1;overflow=hidden;whiteSpace=wrap;html=1;rounded=1;align=left;verticalAlign=top;spacingLeft=4;spacingRight=4;fontFamily=Calibri;fontSize=12;fontColor=default;fontStyle=1;labelBackgroundColor=none;gradientColor=none;shadow=0;comic=0;fillStyle=solid;strokeColor=#6c8ebf;strokeWidth=1;swimlaneFillColor=#ffffff;" parent="qSnJtfrlG7sbHVNIXM9t-8" vertex="1">
          <mxGeometry width="30" height="30" as="geometry">
            <mxRectangle width="30" height="30" as="alternateBounds" />
          </mxGeometry>
        </mxCell>
        <mxCell id="qSnJtfrlG7sbHVNIXM9t-10" value="Last (String)" style="shape=partialRectangle;connectable=0;fillColor=none;top=0;left=0;bottom=0;right=0;align=left;spacingLeft=4;overflow=hidden;whiteSpace=wrap;html=1;rounded=1;verticalAlign=top;spacingRight=4;fontFamily=Calibri;fontSize=12;fontColor=default;fontStyle=0;labelBackgroundColor=none;gradientColor=none;shadow=0;comic=0;fillStyle=solid;strokeColor=#6c8ebf;strokeWidth=1;swimlaneFillColor=#ffffff;" parent="qSnJtfrlG7sbHVNIXM9t-8" vertex="1">
          <mxGeometry x="30" width="150" height="30" as="geometry">
            <mxRectangle width="150" height="30" as="alternateBounds" />
          </mxGeometry>
        </mxCell>
        <mxCell id="qSnJtfrlG7sbHVNIXM9t-11" value="" style="shape=tableRow;horizontal=0;startSize=0;swimlaneHead=0;swimlaneBody=0;fillColor=none;collapsible=0;dropTarget=0;points=[[0,0.5],[1,0.5]];portConstraint=eastwest;top=0;left=0;right=0;bottom=0;rounded=1;align=left;verticalAlign=top;spacingLeft=4;spacingRight=4;fontFamily=Calibri;fontSize=12;fontColor=default;fontStyle=0;labelBackgroundColor=none;gradientColor=none;shadow=0;comic=0;fillStyle=solid;strokeColor=#6c8ebf;strokeWidth=1;swimlaneFillColor=#ffffff;" parent="qSnJtfrlG7sbHVNIXM9t-1" vertex="1">
          <mxGeometry y="120" width="180" height="30" as="geometry" />
        </mxCell>
        <mxCell id="qSnJtfrlG7sbHVNIXM9t-12" value="" style="shape=partialRectangle;connectable=0;fillColor=none;top=0;left=0;bottom=0;right=0;editable=1;overflow=hidden;whiteSpace=wrap;html=1;rounded=1;align=left;verticalAlign=top;spacingLeft=4;spacingRight=4;fontFamily=Calibri;fontSize=12;fontColor=default;fontStyle=1;labelBackgroundColor=none;gradientColor=none;shadow=0;comic=0;fillStyle=solid;strokeColor=#6c8ebf;strokeWidth=1;swimlaneFillColor=#ffffff;" parent="qSnJtfrlG7sbHVNIXM9t-11" vertex="1">
          <mxGeometry width="30" height="30" as="geometry">
            <mxRectangle width="30" height="30" as="alternateBounds" />
          </mxGeometry>
        </mxCell>
        <mxCell id="qSnJtfrlG7sbHVNIXM9t-13" value="Age (INT64)" style="shape=partialRectangle;connectable=0;fillColor=none;top=0;left=0;bottom=0;right=0;align=left;spacingLeft=4;overflow=hidden;whiteSpace=wrap;html=1;rounded=1;verticalAlign=top;spacingRight=4;fontFamily=Calibri;fontSize=12;fontColor=default;fontStyle=0;labelBackgroundColor=none;gradientColor=none;shadow=0;comic=0;fillStyle=solid;strokeColor=#6c8ebf;strokeWidth=1;swimlaneFillColor=#ffffff;" parent="qSnJtfrlG7sbHVNIXM9t-11" vertex="1">
          <mxGeometry x="30" width="150" height="30" as="geometry">
            <mxRectangle width="150" height="30" as="alternateBounds" />
          </mxGeometry>
        </mxCell>
        <mxCell id="qSnJtfrlG7sbHVNIXM9t-17" value="" style="shape=tableRow;horizontal=0;startSize=0;swimlaneHead=0;swimlaneBody=0;fillColor=none;collapsible=0;dropTarget=0;points=[[0,0.5],[1,0.5]];portConstraint=eastwest;top=0;left=0;right=0;bottom=0;rounded=1;shadow=0;comic=0;fillStyle=solid;strokeColor=#6c8ebf;strokeWidth=1;align=left;verticalAlign=top;swimlaneFillColor=#ffffff;fontFamily=Calibri;fontSize=12;fontColor=default;fontStyle=0;labelBackgroundColor=none;gradientColor=none;spacingLeft=4;spacingRight=4;" parent="qSnJtfrlG7sbHVNIXM9t-1" vertex="1">
          <mxGeometry y="150" width="180" height="30" as="geometry" />
        </mxCell>
        <mxCell id="qSnJtfrlG7sbHVNIXM9t-18" value="" style="shape=partialRectangle;connectable=0;fillColor=none;top=0;left=0;bottom=0;right=0;fontStyle=1;overflow=hidden;whiteSpace=wrap;html=1;rounded=1;shadow=0;comic=0;fillStyle=solid;strokeColor=#6c8ebf;strokeWidth=1;align=left;verticalAlign=top;swimlaneFillColor=#ffffff;fontFamily=Calibri;fontSize=12;fontColor=default;labelBackgroundColor=none;gradientColor=none;spacingLeft=4;spacingRight=4;" parent="qSnJtfrlG7sbHVNIXM9t-17" vertex="1">
          <mxGeometry width="30" height="30" as="geometry">
            <mxRectangle width="30" height="30" as="alternateBounds" />
          </mxGeometry>
        </mxCell>
        <mxCell id="qSnJtfrlG7sbHVNIXM9t-19" value="Country (String)" style="shape=partialRectangle;connectable=0;fillColor=none;top=0;left=0;bottom=0;right=0;align=left;spacingLeft=4;fontStyle=0;overflow=hidden;whiteSpace=wrap;html=1;rounded=1;strokeColor=#6c8ebf;verticalAlign=top;spacingRight=4;fontFamily=Calibri;fontSize=12;fontColor=default;labelBackgroundColor=none;gradientColor=none;shadow=0;comic=0;fillStyle=solid;strokeWidth=1;swimlaneFillColor=#ffffff;" parent="qSnJtfrlG7sbHVNIXM9t-17" vertex="1">
          <mxGeometry x="30" width="150" height="30" as="geometry">
            <mxRectangle width="150" height="30" as="alternateBounds" />
          </mxGeometry>
        </mxCell>
        <mxCell id="qSnJtfrlG7sbHVNIXM9t-20" value="Shipping" style="shape=table;startSize=30;container=1;collapsible=1;childLayout=tableLayout;fixedRows=1;rowLines=0;fontStyle=1;align=center;resizeLast=1;html=1;rounded=1;shadow=0;comic=0;fillStyle=solid;strokeColor=#6c8ebf;strokeWidth=1;verticalAlign=middle;swimlaneFillColor=#ffffff;fontFamily=Calibri;fontSize=12;fontColor=#ffffff;labelBackgroundColor=none;fillColor=#70a8db;gradientColor=none;" parent="1" vertex="1">
          <mxGeometry x="635" y="95" width="180" height="120" as="geometry" />
        </mxCell>
        <mxCell id="qSnJtfrlG7sbHVNIXM9t-21" value="" style="shape=tableRow;horizontal=0;startSize=0;swimlaneHead=0;swimlaneBody=0;fillColor=none;collapsible=0;dropTarget=0;points=[[0,0.5],[1,0.5]];portConstraint=eastwest;top=0;left=0;right=0;bottom=1;rounded=1;align=left;verticalAlign=top;spacingLeft=4;spacingRight=4;fontFamily=Calibri;fontSize=12;fontColor=default;fontStyle=0;labelBackgroundColor=none;gradientColor=none;shadow=0;comic=0;fillStyle=solid;strokeColor=#6c8ebf;strokeWidth=1;swimlaneFillColor=#ffffff;" parent="qSnJtfrlG7sbHVNIXM9t-20" vertex="1">
          <mxGeometry y="30" width="180" height="30" as="geometry" />
        </mxCell>
        <mxCell id="qSnJtfrlG7sbHVNIXM9t-22" value="PK" style="shape=partialRectangle;connectable=0;fillColor=none;top=0;left=0;bottom=0;right=0;fontStyle=1;overflow=hidden;whiteSpace=wrap;html=1;rounded=1;align=left;verticalAlign=top;spacingLeft=4;spacingRight=4;fontFamily=Calibri;fontSize=12;fontColor=default;labelBackgroundColor=none;gradientColor=none;shadow=0;comic=0;fillStyle=solid;strokeColor=#6c8ebf;strokeWidth=1;swimlaneFillColor=#ffffff;" parent="qSnJtfrlG7sbHVNIXM9t-21" vertex="1">
          <mxGeometry width="30" height="30" as="geometry">
            <mxRectangle width="30" height="30" as="alternateBounds" />
          </mxGeometry>
        </mxCell>
        <mxCell id="qSnJtfrlG7sbHVNIXM9t-23" value="Shipping_ID (INT64)" style="shape=partialRectangle;connectable=0;fillColor=none;top=0;left=0;bottom=0;right=0;align=left;spacingLeft=4;fontStyle=0;overflow=hidden;whiteSpace=wrap;html=1;rounded=1;verticalAlign=top;spacingRight=4;fontFamily=Calibri;fontSize=12;fontColor=default;labelBackgroundColor=none;gradientColor=none;shadow=0;comic=0;fillStyle=solid;strokeColor=#6c8ebf;strokeWidth=1;swimlaneFillColor=#ffffff;" parent="qSnJtfrlG7sbHVNIXM9t-21" vertex="1">
          <mxGeometry x="30" width="150" height="30" as="geometry">
            <mxRectangle width="150" height="30" as="alternateBounds" />
          </mxGeometry>
        </mxCell>
        <mxCell id="qSnJtfrlG7sbHVNIXM9t-24" value="" style="shape=tableRow;horizontal=0;startSize=0;swimlaneHead=0;swimlaneBody=0;fillColor=none;collapsible=0;dropTarget=0;points=[[0,0.5],[1,0.5]];portConstraint=eastwest;top=0;left=0;right=0;bottom=0;rounded=1;align=left;verticalAlign=top;spacingLeft=4;spacingRight=4;fontFamily=Calibri;fontSize=12;fontColor=default;fontStyle=0;labelBackgroundColor=none;gradientColor=none;shadow=0;comic=0;fillStyle=solid;strokeColor=#6c8ebf;strokeWidth=1;swimlaneFillColor=#ffffff;" parent="qSnJtfrlG7sbHVNIXM9t-20" vertex="1">
          <mxGeometry y="60" width="180" height="30" as="geometry" />
        </mxCell>
        <mxCell id="qSnJtfrlG7sbHVNIXM9t-25" value="" style="shape=partialRectangle;connectable=0;fillColor=none;top=0;left=0;bottom=0;right=0;editable=1;overflow=hidden;whiteSpace=wrap;html=1;rounded=1;align=left;verticalAlign=top;spacingLeft=4;spacingRight=4;fontFamily=Calibri;fontSize=12;fontColor=default;fontStyle=1;labelBackgroundColor=none;gradientColor=none;shadow=0;comic=0;fillStyle=solid;strokeColor=#6c8ebf;strokeWidth=1;swimlaneFillColor=#ffffff;" parent="qSnJtfrlG7sbHVNIXM9t-24" vertex="1">
          <mxGeometry width="30" height="30" as="geometry">
            <mxRectangle width="30" height="30" as="alternateBounds" />
          </mxGeometry>
        </mxCell>
        <mxCell id="qSnJtfrlG7sbHVNIXM9t-26" value="Status (String)" style="shape=partialRectangle;connectable=0;fillColor=none;top=0;left=0;bottom=0;right=0;align=left;spacingLeft=4;overflow=hidden;whiteSpace=wrap;html=1;rounded=1;verticalAlign=top;spacingRight=4;fontFamily=Calibri;fontSize=12;fontColor=default;fontStyle=0;labelBackgroundColor=none;gradientColor=none;shadow=0;comic=0;fillStyle=solid;strokeColor=#6c8ebf;strokeWidth=1;swimlaneFillColor=#ffffff;" parent="qSnJtfrlG7sbHVNIXM9t-24" vertex="1">
          <mxGeometry x="30" width="150" height="30" as="geometry">
            <mxRectangle width="150" height="30" as="alternateBounds" />
          </mxGeometry>
        </mxCell>
        <mxCell id="qSnJtfrlG7sbHVNIXM9t-27" value="" style="shape=tableRow;horizontal=0;startSize=0;swimlaneHead=0;swimlaneBody=0;fillColor=none;collapsible=0;dropTarget=0;points=[[0,0.5],[1,0.5]];portConstraint=eastwest;top=0;left=0;right=0;bottom=0;rounded=1;align=left;verticalAlign=top;spacingLeft=4;spacingRight=4;fontFamily=Calibri;fontSize=12;fontColor=default;fontStyle=0;labelBackgroundColor=none;gradientColor=none;shadow=0;comic=0;fillStyle=solid;strokeColor=#6c8ebf;strokeWidth=1;swimlaneFillColor=#ffffff;" parent="qSnJtfrlG7sbHVNIXM9t-20" vertex="1">
          <mxGeometry y="90" width="180" height="30" as="geometry" />
        </mxCell>
        <mxCell id="qSnJtfrlG7sbHVNIXM9t-28" value="FK" style="shape=partialRectangle;connectable=0;fillColor=none;top=0;left=0;bottom=0;right=0;editable=1;overflow=hidden;whiteSpace=wrap;html=1;rounded=1;align=left;verticalAlign=top;spacingLeft=4;spacingRight=4;fontFamily=Calibri;fontSize=12;fontColor=default;fontStyle=1;labelBackgroundColor=none;gradientColor=none;shadow=0;comic=0;fillStyle=solid;strokeColor=#6c8ebf;strokeWidth=1;swimlaneFillColor=#ffffff;" parent="qSnJtfrlG7sbHVNIXM9t-27" vertex="1">
          <mxGeometry width="30" height="30" as="geometry">
            <mxRectangle width="30" height="30" as="alternateBounds" />
          </mxGeometry>
        </mxCell>
        <mxCell id="qSnJtfrlG7sbHVNIXM9t-29" value="Customer_ID (INT64)" style="shape=partialRectangle;connectable=0;fillColor=none;top=0;left=0;bottom=0;right=0;align=left;spacingLeft=4;overflow=hidden;whiteSpace=wrap;html=1;rounded=1;verticalAlign=top;spacingRight=4;fontFamily=Calibri;fontSize=12;fontColor=default;fontStyle=0;labelBackgroundColor=none;gradientColor=none;shadow=0;comic=0;fillStyle=solid;strokeColor=#6c8ebf;strokeWidth=1;swimlaneFillColor=#ffffff;" parent="qSnJtfrlG7sbHVNIXM9t-27" vertex="1">
          <mxGeometry x="30" width="150" height="30" as="geometry">
            <mxRectangle width="150" height="30" as="alternateBounds" />
          </mxGeometry>
        </mxCell>
        <mxCell id="qSnJtfrlG7sbHVNIXM9t-36" value="Order" style="shape=table;startSize=30;container=1;collapsible=1;childLayout=tableLayout;fixedRows=1;rowLines=0;fontStyle=1;align=center;resizeLast=1;html=1;rounded=1;shadow=0;comic=0;fillStyle=solid;strokeColor=#6c8ebf;strokeWidth=1;verticalAlign=middle;swimlaneFillColor=#ffffff;fontFamily=Calibri;fontSize=12;fontColor=#ffffff;labelBackgroundColor=none;fillColor=#70a8db;gradientColor=none;" parent="1" vertex="1">
          <mxGeometry x="635" y="245" width="180" height="150" as="geometry" />
        </mxCell>
        <mxCell id="qSnJtfrlG7sbHVNIXM9t-37" value="" style="shape=tableRow;horizontal=0;startSize=0;swimlaneHead=0;swimlaneBody=0;fillColor=none;collapsible=0;dropTarget=0;points=[[0,0.5],[1,0.5]];portConstraint=eastwest;top=0;left=0;right=0;bottom=1;rounded=1;align=left;verticalAlign=top;spacingLeft=4;spacingRight=4;fontFamily=Calibri;fontSize=12;fontColor=default;fontStyle=0;labelBackgroundColor=none;gradientColor=none;shadow=0;comic=0;fillStyle=solid;strokeColor=#6c8ebf;strokeWidth=1;swimlaneFillColor=#ffffff;" parent="qSnJtfrlG7sbHVNIXM9t-36" vertex="1">
          <mxGeometry y="30" width="180" height="30" as="geometry" />
        </mxCell>
        <mxCell id="qSnJtfrlG7sbHVNIXM9t-38" value="PK" style="shape=partialRectangle;connectable=0;fillColor=none;top=0;left=0;bottom=0;right=0;fontStyle=1;overflow=hidden;whiteSpace=wrap;html=1;rounded=1;align=left;verticalAlign=top;spacingLeft=4;spacingRight=4;fontFamily=Calibri;fontSize=12;fontColor=default;labelBackgroundColor=none;gradientColor=none;shadow=0;comic=0;fillStyle=solid;strokeColor=#6c8ebf;strokeWidth=1;swimlaneFillColor=#ffffff;" parent="qSnJtfrlG7sbHVNIXM9t-37" vertex="1">
          <mxGeometry width="30" height="30" as="geometry">
            <mxRectangle width="30" height="30" as="alternateBounds" />
          </mxGeometry>
        </mxCell>
        <mxCell id="qSnJtfrlG7sbHVNIXM9t-39" value="Order_ID (INT64)" style="shape=partialRectangle;connectable=0;fillColor=none;top=0;left=0;bottom=0;right=0;align=left;spacingLeft=4;fontStyle=0;overflow=hidden;whiteSpace=wrap;html=1;rounded=1;verticalAlign=top;spacingRight=4;fontFamily=Calibri;fontSize=12;fontColor=default;labelBackgroundColor=none;gradientColor=none;shadow=0;comic=0;fillStyle=solid;strokeColor=#6c8ebf;strokeWidth=1;swimlaneFillColor=#ffffff;" parent="qSnJtfrlG7sbHVNIXM9t-37" vertex="1">
          <mxGeometry x="30" width="150" height="30" as="geometry">
            <mxRectangle width="150" height="30" as="alternateBounds" />
          </mxGeometry>
        </mxCell>
        <mxCell id="qSnJtfrlG7sbHVNIXM9t-40" value="" style="shape=tableRow;horizontal=0;startSize=0;swimlaneHead=0;swimlaneBody=0;fillColor=none;collapsible=0;dropTarget=0;points=[[0,0.5],[1,0.5]];portConstraint=eastwest;top=0;left=0;right=0;bottom=0;rounded=1;align=left;verticalAlign=top;spacingLeft=4;spacingRight=4;fontFamily=Calibri;fontSize=12;fontColor=default;fontStyle=0;labelBackgroundColor=none;gradientColor=none;shadow=0;comic=0;fillStyle=solid;strokeColor=#6c8ebf;strokeWidth=1;swimlaneFillColor=#ffffff;" parent="qSnJtfrlG7sbHVNIXM9t-36" vertex="1">
          <mxGeometry y="60" width="180" height="30" as="geometry" />
        </mxCell>
        <mxCell id="qSnJtfrlG7sbHVNIXM9t-41" value="" style="shape=partialRectangle;connectable=0;fillColor=none;top=0;left=0;bottom=0;right=0;editable=1;overflow=hidden;whiteSpace=wrap;html=1;rounded=1;align=left;verticalAlign=top;spacingLeft=4;spacingRight=4;fontFamily=Calibri;fontSize=12;fontColor=default;fontStyle=1;labelBackgroundColor=none;gradientColor=none;shadow=0;comic=0;fillStyle=solid;strokeColor=#6c8ebf;strokeWidth=1;swimlaneFillColor=#ffffff;" parent="qSnJtfrlG7sbHVNIXM9t-40" vertex="1">
          <mxGeometry width="30" height="30" as="geometry">
            <mxRectangle width="30" height="30" as="alternateBounds" />
          </mxGeometry>
        </mxCell>
        <mxCell id="qSnJtfrlG7sbHVNIXM9t-42" value="Item (String)" style="shape=partialRectangle;connectable=0;fillColor=none;top=0;left=0;bottom=0;right=0;align=left;spacingLeft=4;overflow=hidden;whiteSpace=wrap;html=1;rounded=1;verticalAlign=top;spacingRight=4;fontFamily=Calibri;fontSize=12;fontColor=default;fontStyle=0;labelBackgroundColor=none;gradientColor=none;shadow=0;comic=0;fillStyle=solid;strokeColor=#6c8ebf;strokeWidth=1;swimlaneFillColor=#ffffff;" parent="qSnJtfrlG7sbHVNIXM9t-40" vertex="1">
          <mxGeometry x="30" width="150" height="30" as="geometry">
            <mxRectangle width="150" height="30" as="alternateBounds" />
          </mxGeometry>
        </mxCell>
        <mxCell id="qSnJtfrlG7sbHVNIXM9t-43" value="" style="shape=tableRow;horizontal=0;startSize=0;swimlaneHead=0;swimlaneBody=0;fillColor=none;collapsible=0;dropTarget=0;points=[[0,0.5],[1,0.5]];portConstraint=eastwest;top=0;left=0;right=0;bottom=0;rounded=1;align=left;verticalAlign=top;spacingLeft=4;spacingRight=4;fontFamily=Calibri;fontSize=12;fontColor=default;fontStyle=0;labelBackgroundColor=none;gradientColor=none;shadow=0;comic=0;fillStyle=solid;strokeColor=#6c8ebf;strokeWidth=1;swimlaneFillColor=#ffffff;" parent="qSnJtfrlG7sbHVNIXM9t-36" vertex="1">
          <mxGeometry y="90" width="180" height="30" as="geometry" />
        </mxCell>
        <mxCell id="qSnJtfrlG7sbHVNIXM9t-44" value="" style="shape=partialRectangle;connectable=0;fillColor=none;top=0;left=0;bottom=0;right=0;editable=1;overflow=hidden;whiteSpace=wrap;html=1;rounded=1;align=left;verticalAlign=top;spacingLeft=4;spacingRight=4;fontFamily=Calibri;fontSize=12;fontColor=default;fontStyle=1;labelBackgroundColor=none;gradientColor=none;shadow=0;comic=0;fillStyle=solid;strokeColor=#6c8ebf;strokeWidth=1;swimlaneFillColor=#ffffff;" parent="qSnJtfrlG7sbHVNIXM9t-43" vertex="1">
          <mxGeometry width="30" height="30" as="geometry">
            <mxRectangle width="30" height="30" as="alternateBounds" />
          </mxGeometry>
        </mxCell>
        <mxCell id="qSnJtfrlG7sbHVNIXM9t-45" value="Amount (Decimal(10,2))" style="shape=partialRectangle;connectable=0;fillColor=none;top=0;left=0;bottom=0;right=0;align=left;spacingLeft=4;overflow=hidden;whiteSpace=wrap;html=1;rounded=1;verticalAlign=top;spacingRight=4;fontFamily=Calibri;fontSize=12;fontColor=default;fontStyle=0;labelBackgroundColor=none;gradientColor=none;shadow=0;comic=0;fillStyle=solid;strokeColor=#6c8ebf;strokeWidth=1;swimlaneFillColor=#ffffff;" parent="qSnJtfrlG7sbHVNIXM9t-43" vertex="1">
          <mxGeometry x="30" width="150" height="30" as="geometry">
            <mxRectangle width="150" height="30" as="alternateBounds" />
          </mxGeometry>
        </mxCell>
        <mxCell id="qSnJtfrlG7sbHVNIXM9t-46" value="" style="shape=tableRow;horizontal=0;startSize=0;swimlaneHead=0;swimlaneBody=0;fillColor=none;collapsible=0;dropTarget=0;points=[[0,0.5],[1,0.5]];portConstraint=eastwest;top=0;left=0;right=0;bottom=0;rounded=1;align=left;verticalAlign=top;spacingLeft=4;spacingRight=4;fontFamily=Calibri;fontSize=12;fontColor=default;fontStyle=0;labelBackgroundColor=none;gradientColor=none;shadow=0;comic=0;fillStyle=solid;strokeColor=#6c8ebf;strokeWidth=1;swimlaneFillColor=#ffffff;" parent="qSnJtfrlG7sbHVNIXM9t-36" vertex="1">
          <mxGeometry y="120" width="180" height="30" as="geometry" />
        </mxCell>
        <mxCell id="qSnJtfrlG7sbHVNIXM9t-47" value="FK" style="shape=partialRectangle;connectable=0;fillColor=none;top=0;left=0;bottom=0;right=0;editable=1;overflow=hidden;whiteSpace=wrap;html=1;rounded=1;align=left;verticalAlign=top;spacingLeft=4;spacingRight=4;fontFamily=Calibri;fontSize=12;fontColor=default;fontStyle=1;labelBackgroundColor=none;gradientColor=none;shadow=0;comic=0;fillStyle=solid;strokeColor=#6c8ebf;strokeWidth=1;swimlaneFillColor=#ffffff;" parent="qSnJtfrlG7sbHVNIXM9t-46" vertex="1">
          <mxGeometry width="30" height="30" as="geometry">
            <mxRectangle width="30" height="30" as="alternateBounds" />
          </mxGeometry>
        </mxCell>
        <mxCell id="qSnJtfrlG7sbHVNIXM9t-48" value="Customer_ID (INT64)" style="shape=partialRectangle;connectable=0;fillColor=none;top=0;left=0;bottom=0;right=0;align=left;spacingLeft=4;overflow=hidden;whiteSpace=wrap;html=1;rounded=1;verticalAlign=top;spacingRight=4;fontFamily=Calibri;fontSize=12;fontColor=default;fontStyle=0;labelBackgroundColor=none;gradientColor=none;shadow=0;comic=0;fillStyle=solid;strokeColor=#6c8ebf;strokeWidth=1;swimlaneFillColor=#ffffff;" parent="qSnJtfrlG7sbHVNIXM9t-46" vertex="1">
          <mxGeometry x="30" width="150" height="30" as="geometry">
            <mxRectangle width="150" height="30" as="alternateBounds" />
          </mxGeometry>
        </mxCell>
      </root>
    </mxGraphModel>
  </diagram>
  <diagram id="Tb0UW46aqk0jBwB5XYOI" name="Data Flow Diagram (DFD)">
    <mxGraphModel dx="1834" dy="1536" grid="0" gridSize="10" guides="1" tooltips="1" connect="1" arrows="1" fold="1" page="0" pageScale="1" pageWidth="850" pageHeight="1100" math="0" shadow="0">
      <root>
        <mxCell id="0" />
        <mxCell id="1" parent="0" />
        <mxCell id="Zu4zziNqk2CzYek1WyNw-9" style="edgeStyle=none;curved=0;rounded=1;orthogonalLoop=1;jettySize=auto;html=1;exitX=1;exitY=0.5;exitDx=0;exitDy=0;entryX=0;entryY=0.5;entryDx=0;entryDy=0;fontSize=12;startSize=8;endSize=8;strokeColor=#70a8db;fontColor=#70A8DB;" parent="1" source="Zu4zziNqk2CzYek1WyNw-1" target="Zu4zziNqk2CzYek1WyNw-2" edge="1">
          <mxGeometry relative="1" as="geometry" />
        </mxCell>
        <mxCell id="Zu4zziNqk2CzYek1WyNw-22" value="Item Purchased" style="edgeLabel;html=1;align=center;verticalAlign=middle;resizable=0;points=[];fontSize=12;rounded=1;fontColor=#70a8db;fontStyle=1;fontFamily=Calibri;" parent="Zu4zziNqk2CzYek1WyNw-9" vertex="1" connectable="0">
          <mxGeometry x="-0.1688" relative="1" as="geometry">
            <mxPoint x="2" y="-13" as="offset" />
          </mxGeometry>
        </mxCell>
        <mxCell id="Zu4zziNqk2CzYek1WyNw-1" value="Customer" style="html=1;dashed=0;whiteSpace=wrap;rounded=1;fillStyle=solid;fillColor=#70a8db;fontColor=#ffffff;fontFamily=Calibri;fontStyle=1" parent="1" vertex="1">
          <mxGeometry x="-299" y="-484" width="100" height="50" as="geometry" />
        </mxCell>
        <mxCell id="Zu4zziNqk2CzYek1WyNw-10" style="edgeStyle=none;curved=0;rounded=1;orthogonalLoop=1;jettySize=auto;html=1;exitX=1;exitY=0.5;exitDx=0;exitDy=0;entryX=0;entryY=0.5;entryDx=0;entryDy=0;fontSize=12;startSize=8;endSize=8;strokeColor=#70a8db;fontColor=#70A8DB;" parent="1" source="Zu4zziNqk2CzYek1WyNw-2" target="Zu4zziNqk2CzYek1WyNw-25" edge="1">
          <mxGeometry relative="1" as="geometry" />
        </mxCell>
        <mxCell id="Zu4zziNqk2CzYek1WyNw-24" value="Customer Id,&lt;div&gt;Item Purchased&lt;/div&gt;" style="edgeLabel;html=1;align=center;verticalAlign=middle;resizable=0;points=[];fontSize=12;rounded=1;fontColor=#70a8db;fontStyle=1;fontFamily=Calibri;" parent="Zu4zziNqk2CzYek1WyNw-10" vertex="1" connectable="0">
          <mxGeometry x="-0.0895" y="-4" relative="1" as="geometry">
            <mxPoint x="-2" y="-29" as="offset" />
          </mxGeometry>
        </mxCell>
        <mxCell id="Zu4zziNqk2CzYek1WyNw-2" value="Check&amp;nbsp;&lt;div&gt;Customer ID&lt;/div&gt;" style="shape=ellipse;html=1;dashed=0;whiteSpace=wrap;perimeter=ellipsePerimeter;rounded=1;fillStyle=solid;fillColor=#70a8db;fontColor=#ffffff;fontFamily=Calibri;fontStyle=1" parent="1" vertex="1">
          <mxGeometry x="-45" y="-501" width="84" height="84" as="geometry" />
        </mxCell>
        <mxCell id="Zu4zziNqk2CzYek1WyNw-3" value="Orders" style="html=1;dashed=0;whiteSpace=wrap;shape=partialRectangle;right=0;left=0;rounded=1;fillStyle=solid;fillColor=#70a8db;fontColor=#ffffff;fontFamily=Calibri;fontStyle=1" parent="1" vertex="1">
          <mxGeometry x="140" y="-337" width="100" height="30" as="geometry" />
        </mxCell>
        <mxCell id="Zu4zziNqk2CzYek1WyNw-4" value="Shipping" style="html=1;dashed=0;whiteSpace=wrap;shape=partialRectangle;right=0;left=0;rounded=1;fillStyle=solid;fillColor=#70a8db;fontColor=#ffffff;fontFamily=Calibri;fontStyle=1" parent="1" vertex="1">
          <mxGeometry x="333" y="-337" width="100" height="30" as="geometry" />
        </mxCell>
        <mxCell id="Zu4zziNqk2CzYek1WyNw-12" style="edgeStyle=none;curved=0;rounded=1;orthogonalLoop=1;jettySize=auto;html=1;exitX=0.5;exitY=1;exitDx=0;exitDy=0;entryX=0.5;entryY=0;entryDx=0;entryDy=0;fontSize=12;startSize=8;endSize=8;strokeColor=#70a8db;fontColor=#70A8DB;" parent="1" source="Zu4zziNqk2CzYek1WyNw-6" target="Zu4zziNqk2CzYek1WyNw-4" edge="1">
          <mxGeometry relative="1" as="geometry" />
        </mxCell>
        <mxCell id="Zu4zziNqk2CzYek1WyNw-6" value="Shipment Request" style="shape=ellipse;html=1;dashed=0;whiteSpace=wrap;perimeter=ellipsePerimeter;rounded=1;fillStyle=solid;fillColor=#70a8db;fontColor=#ffffff;fontFamily=Calibri;fontStyle=1" parent="1" vertex="1">
          <mxGeometry x="341" y="-501" width="84" height="84" as="geometry" />
        </mxCell>
        <mxCell id="Zu4zziNqk2CzYek1WyNw-23" style="edgeStyle=none;curved=0;rounded=1;orthogonalLoop=1;jettySize=auto;html=1;exitX=0;exitY=1;exitDx=0;exitDy=0;fontSize=12;strokeColor=#70a8db;fontColor=#70A8DB;entryX=0.25;entryY=0;entryDx=0;entryDy=0;" parent="1" source="Zu4zziNqk2CzYek1WyNw-2" target="SbJtQ9lVPEzmflc-ctkE-5" edge="1">
          <mxGeometry relative="1" as="geometry">
            <mxPoint x="-34" y="-335" as="targetPoint" />
          </mxGeometry>
        </mxCell>
        <mxCell id="Zu4zziNqk2CzYek1WyNw-27" style="edgeStyle=none;curved=0;rounded=1;orthogonalLoop=1;jettySize=auto;html=1;exitX=0.5;exitY=1;exitDx=0;exitDy=0;entryX=0.5;entryY=0;entryDx=0;entryDy=0;fontSize=12;startSize=8;endSize=8;strokeColor=#70a8db;fontColor=#70A8DB;" parent="1" source="Zu4zziNqk2CzYek1WyNw-25" target="Zu4zziNqk2CzYek1WyNw-3" edge="1">
          <mxGeometry relative="1" as="geometry" />
        </mxCell>
        <mxCell id="Zu4zziNqk2CzYek1WyNw-28" style="edgeStyle=none;curved=0;rounded=1;orthogonalLoop=1;jettySize=auto;html=1;exitX=1;exitY=0.5;exitDx=0;exitDy=0;entryX=0;entryY=0.5;entryDx=0;entryDy=0;fontSize=12;startSize=8;endSize=8;strokeColor=#70a8db;fontColor=#70A8DB;" parent="1" source="Zu4zziNqk2CzYek1WyNw-25" target="Zu4zziNqk2CzYek1WyNw-6" edge="1">
          <mxGeometry relative="1" as="geometry" />
        </mxCell>
        <mxCell id="Zu4zziNqk2CzYek1WyNw-29" value="Customer Id" style="edgeLabel;html=1;align=center;verticalAlign=middle;resizable=0;points=[];fontSize=12;rounded=1;fontColor=#70a8db;fontStyle=1;fontFamily=Calibri;" parent="Zu4zziNqk2CzYek1WyNw-28" vertex="1" connectable="0">
          <mxGeometry x="-0.1569" y="-1" relative="1" as="geometry">
            <mxPoint x="4" y="-17" as="offset" />
          </mxGeometry>
        </mxCell>
        <mxCell id="Zu4zziNqk2CzYek1WyNw-25" value="Place Order" style="shape=ellipse;html=1;dashed=0;whiteSpace=wrap;perimeter=ellipsePerimeter;rounded=1;fillStyle=solid;fillColor=#70a8db;fontColor=#ffffff;fontFamily=Calibri;fontStyle=1" parent="1" vertex="1">
          <mxGeometry x="148" y="-501" width="84" height="84" as="geometry" />
        </mxCell>
        <mxCell id="2pOhDiLvcRTxQ1ulAC8G-1" value="Customer Id" style="edgeLabel;html=1;align=center;verticalAlign=middle;resizable=0;points=[];fontSize=12;rounded=1;fontColor=#70a8db;fontStyle=1;fontFamily=Calibri;" parent="1" vertex="1" connectable="0">
          <mxGeometry x="34" y="-354" as="geometry" />
        </mxCell>
        <mxCell id="2pOhDiLvcRTxQ1ulAC8G-2" value="Item Purchased" style="edgeLabel;html=1;align=center;verticalAlign=middle;resizable=0;points=[];fontSize=12;rounded=1;fontColor=#70a8db;fontStyle=1;fontFamily=Calibri;" parent="1" vertex="1" connectable="0">
          <mxGeometry x="190" y="-381" as="geometry" />
        </mxCell>
        <mxCell id="2pOhDiLvcRTxQ1ulAC8G-3" value="Customer Id" style="edgeLabel;html=1;align=center;verticalAlign=middle;resizable=0;points=[];fontSize=12;rounded=1;fontColor=#70a8db;fontStyle=1;fontFamily=Calibri;" parent="1" vertex="1" connectable="0">
          <mxGeometry x="384" y="-377" as="geometry" />
        </mxCell>
        <mxCell id="SbJtQ9lVPEzmflc-ctkE-1" style="edgeStyle=none;curved=0;rounded=1;orthogonalLoop=1;jettySize=auto;html=1;exitX=0.75;exitY=0;exitDx=0;exitDy=0;fontSize=12;strokeColor=#70a8db;fontColor=#70A8DB;entryX=1;entryY=1;entryDx=0;entryDy=0;" edge="1" parent="1" source="SbJtQ9lVPEzmflc-ctkE-5" target="Zu4zziNqk2CzYek1WyNw-2">
          <mxGeometry relative="1" as="geometry">
            <mxPoint x="28" y="-335" as="sourcePoint" />
            <mxPoint x="68" y="-345" as="targetPoint" />
          </mxGeometry>
        </mxCell>
        <mxCell id="SbJtQ9lVPEzmflc-ctkE-2" value="Customer Details" style="edgeLabel;html=1;align=center;verticalAlign=middle;resizable=0;points=[];fontSize=12;rounded=1;fontColor=#70a8db;fontStyle=1;fontFamily=Calibri;" vertex="1" connectable="0" parent="1">
          <mxGeometry x="-47" y="-401" as="geometry" />
        </mxCell>
        <mxCell id="SbJtQ9lVPEzmflc-ctkE-3" value="Customer Details" style="edgeLabel;html=1;align=center;verticalAlign=middle;resizable=0;points=[];fontSize=12;rounded=1;fontColor=#70a8db;fontStyle=1;fontFamily=Calibri;" vertex="1" connectable="0" parent="1">
          <mxGeometry x="-132" y="-451" as="geometry" />
        </mxCell>
        <mxCell id="SbJtQ9lVPEzmflc-ctkE-5" value="Customers" style="html=1;dashed=0;whiteSpace=wrap;shape=partialRectangle;right=0;left=0;rounded=1;fillStyle=solid;strokeColor=default;align=center;verticalAlign=middle;fontFamily=Calibri;fontSize=12;fontColor=#ffffff;fontStyle=1;fillColor=#70a8db;" vertex="1" parent="1">
          <mxGeometry x="-64.75" y="-337" width="123.5" height="30" as="geometry" />
        </mxCell>
      </root>
    </mxGraphModel>
  </diagram>
</mxfile>
